<?xml version="1.0" encoding="utf-8"?>
<!-- Generator: Adobe Illustrator 16.0.0, SVG Export Plug-In . SVG Version: 6.00 Build 0)  -->
<!DOCTYPE svg PUBLIC "-//W3C//DTD SVG 1.1//EN" "http://www.w3.org/Graphics/SVG/1.1/DTD/svg11.dtd">
<svg version="1.1" id="Layer_1" xmlns="http://www.w3.org/2000/svg" xmlns:xlink="http://www.w3.org/1999/xlink" x="0px" y="0px"
	 width="2000px" height="300px" viewBox="0 0 2000 300" enable-background="new 0 0 2000 300" xml:space="preserve">
<g>
	<path d="M95.273,40.865h-82v-29.6h199.598v29.6h-82.398v239.997H95.273V40.865z"/>
	<path d="M382.469,154.463H277.671v97.198h116.797v29.2H242.872V11.265h145.597v29.199H277.671v85.199h104.797L382.469,154.463
		L382.469,154.463z"/>
	<path d="M434.867,238.461c15.6,9.602,38.399,17.6,62.399,17.6c35.599,0,56.398-18.799,56.398-45.998
		c0-25.199-14.4-39.6-50.799-53.6c-44-15.6-71.199-38.398-71.199-76.399c0-42,34.799-73.199,87.199-73.199
		c27.6,0,47.598,6.4,59.598,13.2l-9.6,28.399c-8.799-4.8-26.799-12.8-51.199-12.8c-36.799,0-50.799,22-50.799,40.399
		c0,25.2,16.399,37.6,53.6,52c45.601,17.601,68.799,39.6,68.799,79.199c0,41.6-30.801,77.6-94.397,77.6
		c-26,0-54.4-7.602-68.799-17.2L434.867,238.461z"/>
	<path d="M688.064,40.865h-81.998v-29.6h199.598v29.6h-82.4v239.997h-35.199V40.865L688.064,40.865z"/>
</g>
</svg>
